<svg width="360" height="356" viewBox="0 0 360 356" fill="none" xmlns="http://www.w3.org/2000/svg">
<path d="M319.125 147.19L232.371 60.5412C208.464 36.6292 169.531 36.5707 145.511 60.4436C145.511 60.4875 145.511 60.4875 145.399 60.5412L58.7621 146.941C53.0224 152.62 48.4665 159.386 45.3597 166.847C42.253 174.307 40.6573 182.313 40.6657 190.398C40.6602 198.406 42.2591 206.334 45.3677 213.711C48.4763 221.088 53.0312 227.763 58.7621 233.342L145.53 320.127C157.063 331.615 172.662 338.058 188.919 338.047C205.176 338.036 220.767 331.572 232.284 320.069L319.144 233.693C324.843 228.036 329.366 221.303 332.453 213.882C335.54 206.462 337.13 198.501 337.13 190.461C337.13 182.421 335.54 174.461 332.453 167.04C329.366 159.62 324.843 152.886 319.144 147.229L319.125 147.19Z" fill="#008EFF" stroke="#181180" stroke-width="1.5" stroke-miterlimit="10"/>
<path d="M292.102 201.578C304.322 201.578 314.229 191.645 314.229 179.393C314.229 167.141 304.322 157.209 292.102 157.209C279.882 157.209 269.976 167.141 269.976 179.393C269.976 191.645 279.882 201.578 292.102 201.578Z" fill="#0028F4" stroke="#0028F4" stroke-width="1.5" stroke-linecap="round" stroke-linejoin="round"/>
<path d="M291.922 199.884C304.18 199.884 314.117 189.922 314.117 177.632C314.117 165.342 304.18 155.379 291.922 155.379C279.664 155.379 269.727 165.342 269.727 177.632C269.727 189.922 279.664 199.884 291.922 199.884Z" fill="#FFF000" stroke="#0C23F4" stroke-width="1.5" stroke-linecap="round" stroke-linejoin="round"/>
<path d="M241.61 303.957C245.152 302.906 245.526 293.599 242.447 283.169C239.367 272.738 234 265.135 230.458 266.186C226.917 267.237 226.542 276.545 229.622 286.975C232.701 297.405 238.069 305.009 241.61 303.957Z" fill="#0C23F4" stroke="#0C23F4" stroke-width="1.5" stroke-linecap="round" stroke-linejoin="round"/>
<path d="M239.854 304.48C243.396 303.429 243.77 294.122 240.691 283.691C237.611 273.261 232.244 265.658 228.702 266.709C225.161 267.76 224.786 277.068 227.866 287.498C230.945 297.928 236.313 305.531 239.854 304.48Z" fill="#FFF000" stroke="#0C23F4" stroke-width="1.5" stroke-linecap="round" stroke-linejoin="round"/>
<path d="M273.709 108.607C275.423 105.327 269.023 98.5749 259.414 93.5253C249.805 88.4757 240.625 87.041 238.91 90.3209C237.196 93.6009 243.596 100.353 253.205 105.403C262.814 110.453 271.994 111.887 273.709 108.607Z" fill="#0C23F4" stroke="#0C23F4" stroke-width="1.5" stroke-linecap="round" stroke-linejoin="round"/>
<path d="M272.86 110.237C274.574 106.958 268.174 100.205 258.565 95.1554C248.956 90.1058 239.776 88.6711 238.061 91.9511C236.347 95.231 242.747 101.983 252.356 107.033C261.965 112.083 271.145 113.517 272.86 110.237Z" fill="#FFF000" stroke="#0C23F4" stroke-width="1.5" stroke-linecap="round" stroke-linejoin="round"/>
<path d="M118.279 279.009C130.499 279.009 140.405 269.076 140.405 256.824C140.405 244.572 130.499 234.64 118.279 234.64C106.059 234.64 96.1522 244.572 96.1522 256.824C96.1522 269.076 106.059 279.009 118.279 279.009Z" fill="#0028F4" stroke="#0028F4" stroke-width="1.5" stroke-linecap="round" stroke-linejoin="round"/>
<path d="M118.094 277.247C130.314 277.247 140.22 267.314 140.22 255.062C140.22 242.81 130.314 232.878 118.094 232.878C105.874 232.878 95.9672 242.81 95.9672 255.062C95.9672 267.314 105.874 277.247 118.094 277.247Z" fill="#FFF000" stroke="#0028F4" stroke-width="1.5" stroke-linecap="round" stroke-linejoin="round"/>
<path d="M118.094 277.315C130.351 277.315 140.288 267.352 140.288 255.062C140.288 242.772 130.351 232.81 118.094 232.81C105.836 232.81 95.8991 242.772 95.8991 255.062C95.8991 267.352 105.836 277.315 118.094 277.315Z" fill="#FFF000" stroke="#0C23F4" stroke-width="1.5" stroke-linecap="round" stroke-linejoin="round"/>
<path d="M114.823 241.374L112.331 267.667L129.77 264.53" stroke="#0C23F4" stroke-width="1.5" stroke-linecap="round" stroke-linejoin="round"/>
<path d="M118.05 254.057L108.977 259.869" stroke="#0C23F4" stroke-width="1.5" stroke-linecap="round" stroke-linejoin="round"/>
<path d="M281.092 302.105C293.313 302.105 303.219 292.173 303.219 279.921C303.219 267.669 293.313 257.737 281.092 257.737C268.872 257.737 258.966 267.669 258.966 279.921C258.966 292.173 268.872 302.105 281.092 302.105Z" fill="#0028F4" stroke="#0028F4" stroke-width="1.5" stroke-linecap="round" stroke-linejoin="round"/>
<path d="M280.912 300.417C293.17 300.417 303.107 290.454 303.107 278.164C303.107 265.874 293.17 255.911 280.912 255.911C268.655 255.911 258.718 265.874 258.718 278.164C258.718 290.454 268.655 300.417 280.912 300.417Z" fill="#FFF000" stroke="#0C23F4" stroke-width="1.5" stroke-linecap="round" stroke-linejoin="round"/>
<path d="M285.337 263.754L270.677 267.116L266.238 281.531L276.459 292.58L291.119 289.213L295.543 274.802L285.337 263.754ZM286.884 284.611L278.328 286.563L272.361 280.111L274.94 271.708L283.492 269.756L289.464 276.207L286.884 284.611Z" fill="#FFF000" stroke="#0C23F4" stroke-width="1.5" stroke-linecap="round" stroke-linejoin="round"/>
<path d="M151.052 61.9796C154.004 51.5125 153.517 42.2103 149.962 41.2027C146.408 40.195 141.134 47.8634 138.182 58.3305C135.23 68.7977 135.718 78.0998 139.272 79.1075C142.826 80.1152 148.1 72.4467 151.052 61.9796Z" fill="#0C23F4" stroke="#0C23F4" stroke-width="1.5" stroke-linecap="round" stroke-linejoin="round"/>
<path d="M152.814 62.4747C155.766 52.0076 155.278 42.7054 151.724 41.6978C148.17 40.6901 142.896 48.3585 139.943 58.8256C136.991 69.2928 137.479 78.595 141.033 79.6026C144.587 80.6103 149.862 72.9419 152.814 62.4747Z" fill="#FFF000" stroke="#0C23F4" stroke-width="1.5" stroke-linecap="round" stroke-linejoin="round"/>
<path d="M211.968 155.423L178.306 144.501L125.74 168.384L125.365 190.871C123.13 200.83 122.92 211.138 124.747 221.18C127.823 237.582 139.31 277.3 139.31 277.3L129.624 304.218L145.53 320.127C152.305 326.826 160.525 331.873 169.555 334.879C178.586 337.885 188.184 338.768 197.61 337.461L203.757 308.884C203.757 308.884 249.319 278.14 259.375 230.208C268.91 184.624 211.968 155.423 211.968 155.423Z" fill="#9F5B3A" stroke="#181180" stroke-width="1.5" stroke-linecap="round" stroke-linejoin="round"/>
<path d="M221.06 119.833C221.06 119.833 244.598 63.0397 260.363 62.2491C279.272 61.3317 256.347 100.152 249.655 117.881C242.963 135.61 246.438 154.696 246.438 154.696" fill="#9F5B3A"/>
<path d="M221.06 119.833C221.06 119.833 244.598 63.0397 260.363 62.2491C279.272 61.3317 256.347 100.152 249.655 117.881C242.963 135.61 246.438 154.696 246.438 154.696" stroke="#181180" stroke-width="1.5" stroke-linecap="round" stroke-linejoin="round"/>
<path d="M279.837 192.223C279.837 192.223 274.317 213.787 256.27 232.463C232.62 256.941 255.734 205.238 255.734 205.238L271.908 193.648L279.837 192.223Z" fill="#9F5B3A" stroke="#181180" stroke-width="1.5" stroke-linecap="round" stroke-linejoin="round"/>
<path d="M273.251 168.286C273.251 168.286 261.468 189.514 246.55 198.655C231.632 207.795 242.082 183.258 242.082 183.258L255.491 170.726L265.128 167.403L273.251 168.286Z" fill="#9F5B3A" stroke="#181180" stroke-width="1.5" stroke-linecap="round" stroke-linejoin="round"/>
<path d="M266.861 138.494C266.861 138.494 248.774 168.262 235.039 179.833C221.303 191.403 222.457 160.552 222.457 160.552L242.315 151.685L256.357 142.12L266.861 138.494Z" fill="#9F5B3A" stroke="#181180" stroke-width="1.5" stroke-linecap="round" stroke-linejoin="round"/>
<path d="M258.883 253.115L160.989 272.518C159.703 272.769 158.37 272.5 157.281 271.768C156.193 271.036 155.438 269.902 155.182 268.614L117.544 80.5686C117.292 79.2791 117.56 77.942 118.29 76.8506C119.02 75.7593 120.152 75.0027 121.437 74.7468L219.337 55.344C220.622 55.0942 221.954 55.3646 223.041 56.0961C224.128 56.8276 224.882 57.9607 225.139 59.248L262.782 247.298C263.031 248.588 262.761 249.923 262.03 251.013C261.299 252.104 260.168 252.859 258.883 253.115V253.115Z" fill="#008EFF" stroke="#181180" stroke-width="1.5" stroke-miterlimit="10"/>
<path d="M120.859 93.8935L120.372 93.99C119.523 94.1583 118.971 94.9848 119.139 95.8362L122.86 114.713C123.027 115.564 123.852 116.118 124.701 115.95L125.188 115.853C126.037 115.685 126.59 114.858 126.422 114.007L122.701 95.1304C122.533 94.279 121.708 93.7252 120.859 93.8935Z" fill="#008EFF" stroke="#181180" stroke-width="1.5" stroke-miterlimit="10"/>
<path d="M235.496 86.7682L234.784 86.9092C233.532 87.1574 232.717 88.3767 232.965 89.6326L236.397 107.044C236.644 108.3 237.861 109.117 239.113 108.869L239.825 108.728C241.077 108.48 241.892 107.26 241.644 106.004L238.212 88.5928C237.965 87.3369 236.748 86.52 235.496 86.7682Z" fill="#00CEFF" stroke="#181180" stroke-width="1.5" stroke-miterlimit="10"/>
<path d="M125.963 118.699L125.476 118.796C124.627 118.964 124.075 119.791 124.243 120.642L127.964 139.518C128.131 140.37 128.956 140.924 129.805 140.755L130.292 140.659C131.141 140.491 131.694 139.664 131.526 138.813L127.805 119.936C127.637 119.085 126.812 118.531 125.963 118.699Z" fill="#008EFF" stroke="#181180" stroke-width="1.5" stroke-miterlimit="10"/>
<path d="M263.527 252.198L165.627 271.596C164.342 271.847 163.009 271.577 161.922 270.845C160.834 270.114 160.081 268.98 159.825 267.692L122.168 79.6464C121.918 78.3571 122.188 77.0214 122.917 75.9306C123.647 74.8399 124.777 74.0828 126.061 73.8246L223.961 54.4266C225.246 54.1755 226.579 54.4453 227.666 55.177C228.753 55.9088 229.507 57.0427 229.763 58.3306L267.406 246.386C267.652 247.672 267.384 249.003 266.657 250.091C265.931 251.179 264.806 251.936 263.527 252.198Z" fill="#DFDFDF" stroke="#181180" stroke-width="1.5" stroke-miterlimit="10"/>
<path d="M218.952 62.5613L194.616 67.3876C194.616 67.456 194.665 67.5194 194.68 67.5926C194.883 68.6393 194.665 69.7242 194.073 70.6103C193.481 71.4963 192.564 72.1115 191.521 72.3213L162.892 77.9967C161.848 78.2007 160.766 77.9821 159.882 77.3886C158.998 76.7952 158.385 75.8752 158.175 74.8296C158.175 74.7564 158.175 74.6832 158.175 74.61L133.839 79.4363C132.47 79.7122 131.266 80.5198 130.489 81.6828C129.712 82.8457 129.426 84.2697 129.692 85.6437L164.493 259.303C164.768 260.675 165.574 261.883 166.734 262.662C167.893 263.441 169.314 263.728 170.684 263.461L255.797 246.586C257.166 246.31 258.37 245.502 259.147 244.339C259.924 243.176 260.211 241.752 259.944 240.378L225.144 66.7191C224.868 65.3468 224.063 64.1393 222.903 63.3604C221.743 62.5814 220.323 62.2941 218.952 62.5613V62.5613Z" fill="white" stroke="#181180" stroke-width="1.5" stroke-linecap="round" stroke-linejoin="round"/>
<path d="M165.452 73.9953C166.643 73.9953 167.608 73.0274 167.608 71.8335C167.608 70.6395 166.643 69.6716 165.452 69.6716C164.261 69.6716 163.296 70.6395 163.296 71.8335C163.296 73.0274 164.261 73.9953 165.452 73.9953Z" fill="white" stroke="#181180" stroke-width="1.5" stroke-linecap="round" stroke-linejoin="round"/>
<path d="M170.509 70.3841L186.678 67.1243" stroke="#181180" stroke-width="1.5" stroke-linecap="round" stroke-linejoin="round"/>
<path d="M125.633 174.586C125.633 174.586 125.107 164.695 123.925 158.687C122.742 152.68 120.795 147.239 127.015 146.941C133.236 146.644 142.43 166.154 143.077 179.823C143.458 188.396 143.281 196.985 142.547 205.535" fill="#9F5B3A"/>
<path d="M125.633 174.586C125.633 174.586 125.107 164.695 123.925 158.687C122.742 152.68 120.795 147.239 127.015 146.941C133.236 146.644 142.43 166.154 143.077 179.823C143.458 188.396 143.281 196.985 142.547 205.535" stroke="#181180" stroke-width="1.5" stroke-linecap="round" stroke-linejoin="round"/>
<path d="M126.441 172.171C126.441 172.171 130.388 172.791 132.316 170.038C134.243 167.286 131.736 154.539 123.949 155.428C123.949 155.428 123.272 155.579 123.506 156.682C123.74 157.785 125.506 168.369 125.341 170.346C125.341 170.341 125.341 172.429 126.441 172.171Z" fill="#CB8263" stroke="#181180" stroke-width="1.5" stroke-linecap="round" stroke-linejoin="round"/>
<path d="M279.287 190.09C278.737 189.514 275.821 192.735 273.358 195.697L273.636 199.294C273.69 199.244 273.755 199.207 273.826 199.186H273.952C274.036 199.188 274.118 199.212 274.191 199.255L274.283 199.328C274.371 199.422 274.421 199.546 274.424 199.674C274.425 199.737 274.41 199.8 274.38 199.855C274.36 199.914 274.327 199.967 274.283 200.011L274.225 200.079C274.165 200.155 274.115 200.237 274.074 200.323L274.118 200.226C274.095 200.303 274.053 200.374 273.996 200.431L273.894 200.509C273.843 200.533 273.789 200.547 273.733 200.553L273.86 202.173C275.807 199.733 277.753 196.99 277.753 196.99C277.753 196.99 280.275 191.125 279.287 190.09Z" fill="#9F5B3A"/>
<path d="M265.415 171.839C265.488 172.039 264.412 177.475 265.848 177.417C267.284 177.358 271.811 169.677 271.811 169.677C271.811 169.677 272.404 165.588 271.416 164.558C270.428 163.528 265.415 171.839 265.415 171.839Z" fill="#9F5B3A"/>
<path d="M258.966 142.32C259.039 142.52 257.963 147.951 259.399 147.893C260.835 147.834 265.361 140.153 265.361 140.153C265.361 140.153 265.955 136.069 264.967 135.034C263.979 134 258.966 142.32 258.966 142.32Z" fill="#9F5B3A"/>
<path d="M241.166 103.573C241.166 103.573 243.337 107.238 249.319 108.482" stroke="#181180" stroke-width="1.5" stroke-linecap="round" stroke-linejoin="round"/>
<path d="M175.522 269.639L250.838 254.477C248.076 260.582 244.64 266.357 240.592 271.693L175.522 269.639Z" fill="#744126" stroke="#181180" stroke-width="1.5" stroke-linecap="round" stroke-linejoin="round"/>
<path d="M248.803 153.402L266.496 139.109L257.783 152.641L249.859 158.668L248.803 153.402Z" fill="#744126" stroke="#181180" stroke-width="1.5" stroke-linecap="round" stroke-linejoin="round"/>
<path d="M254.761 183.161L273.251 168.286L260.047 189.353L256.172 190.627L254.761 183.161Z" fill="#744126" stroke="#181180" stroke-width="1.5" stroke-linecap="round" stroke-linejoin="round"/>
<path d="M260.631 212.48L279.515 193.345C279.515 193.345 274.536 208.605 263.215 225.392L260.631 212.48Z" fill="#744126" stroke="#181180" stroke-width="1.5" stroke-linecap="round" stroke-linejoin="round"/>
<path d="M265.181 124.928C260.981 119.281 253.695 117.656 248.91 121.292L225.119 139.382C220.335 143.018 219.868 150.543 224.068 156.189C228.273 161.845 235.574 163.479 240.344 159.834L264.135 141.744C268.915 138.104 269.387 130.583 265.181 124.928Z" fill="#9F5B3A" stroke="#181180" stroke-width="1.5" stroke-linecap="round" stroke-linejoin="round"/>
<path d="M272.132 155.842C268.428 150.865 262.003 149.43 257.783 152.641L236.81 168.589C232.59 171.795 232.177 178.427 235.881 183.405C239.59 188.377 246.014 189.812 250.229 186.606L271.207 170.658C275.427 167.452 275.841 160.815 272.132 155.842Z" fill="#9F5B3A" stroke="#181180" stroke-width="1.5" stroke-linecap="round" stroke-linejoin="round"/>
<path d="M276.848 182.721C273.003 178.671 267.206 177.993 263.901 181.209L247.46 197.186C244.15 200.397 244.588 206.287 248.433 210.332C252.278 214.383 258.075 215.061 261.385 211.85L277.827 195.873C281.131 192.657 280.693 186.772 276.848 182.721Z" fill="#9F5B3A" stroke="#181180" stroke-width="1.5" stroke-linecap="round" stroke-linejoin="round"/>
<path d="M227.198 145.297C229.461 147.322 233.038 150.85 235.418 154.842C235.621 155.174 235.896 155.454 236.223 155.663C236.55 155.872 236.921 156.003 237.306 156.047C237.691 156.091 238.081 156.046 238.447 155.916C238.812 155.785 239.143 155.574 239.414 155.296C242.335 152.309 246.204 146.732 242.301 140.734C237.876 133.931 230.799 138.445 227.246 141.442C226.968 141.678 226.743 141.971 226.588 142.302C226.432 142.632 226.349 142.993 226.345 143.358C226.34 143.724 226.414 144.086 226.561 144.42C226.708 144.755 226.925 145.054 227.198 145.297V145.297Z" fill="#CB8263" stroke="#181180" stroke-width="1.5" stroke-linecap="round" stroke-linejoin="round"/>
<path d="M239.468 173.401C241.415 175.148 244.627 178.281 246.676 181.843C246.82 182.089 247.018 182.299 247.256 182.456C247.494 182.613 247.764 182.713 248.046 182.748C248.329 182.784 248.615 182.753 248.884 182.66C249.153 182.566 249.397 182.412 249.597 182.209C252.084 179.769 255.744 174.889 252.322 169.633C248.55 163.831 242.49 167.789 239.526 170.312C239.301 170.499 239.119 170.733 238.992 170.997C238.865 171.261 238.797 171.549 238.791 171.843C238.786 172.136 238.843 172.427 238.96 172.696C239.077 172.964 239.25 173.205 239.468 173.401V173.401Z" fill="#CB8263" stroke="#181180" stroke-width="1.5" stroke-linecap="round" stroke-linejoin="round"/>
<path d="M250.731 202.52C252.806 204.386 254.626 206.519 256.143 208.864C256.295 209.123 256.504 209.343 256.755 209.508C257.006 209.673 257.292 209.777 257.589 209.813C257.887 209.849 258.189 209.816 258.472 209.715C258.754 209.615 259.01 209.45 259.219 209.234C261.293 207.068 263.906 203.149 261.166 198.938C258.182 194.351 253.51 196.986 250.857 199.074C250.602 199.279 250.394 199.536 250.247 199.828C250.1 200.12 250.018 200.441 250.006 200.768C249.994 201.095 250.052 201.421 250.177 201.723C250.302 202.025 250.491 202.297 250.731 202.52V202.52Z" fill="#CB8263" stroke="#181180" stroke-width="1.5" stroke-linecap="round" stroke-linejoin="round"/>
<path d="M139.305 277.286L143.282 292.887L134.078 291.818L139.305 277.286Z" fill="#744126" stroke="#181180" stroke-width="1.5" stroke-linecap="round" stroke-linejoin="round"/>
<path d="M186.483 337.959C189.787 338.054 193.093 337.924 196.378 337.568L197.673 337.007L203.728 308.864L188.888 314.759L195.541 320.015L186.483 337.959Z" fill="#744126" stroke="#181180" stroke-width="1.5" stroke-linecap="round" stroke-linejoin="round"/>
<path d="M338.881 236.865L341.67 243.209" stroke="#181180" stroke-width="1.5" stroke-miterlimit="10" stroke-linecap="round"/>
<path d="M343.442 238.636L337.109 241.437" stroke="#181180" stroke-width="1.5" stroke-miterlimit="10" stroke-linecap="round"/>
<path d="M22.3163 172.429C23.1362 172.429 23.8008 171.763 23.8008 170.941C23.8008 170.119 23.1362 169.453 22.3163 169.453C21.4964 169.453 20.8318 170.119 20.8318 170.941C20.8318 171.763 21.4964 172.429 22.3163 172.429Z" fill="#FFF000" stroke="#181180" stroke-width="1.5" stroke-miterlimit="10"/>
<path d="M298.649 88.0153C299.95 88.0153 301.004 86.9579 301.004 85.6534C301.004 84.349 299.95 83.2915 298.649 83.2915C297.348 83.2915 296.293 84.349 296.293 85.6534C296.293 86.9579 297.348 88.0153 298.649 88.0153Z" fill="#FFF000" stroke="#181180" stroke-width="1.5" stroke-miterlimit="10"/>
<path d="M37.541 146.4C37.4826 146.255 37.3923 146.125 37.2768 146.02C37.1613 145.916 37.0237 145.838 36.8742 145.795C35.5697 145.487 34.2459 145.248 32.9268 144.999C32.1537 144.88 31.4387 144.516 30.8855 143.962C30.3324 143.407 29.9699 142.69 29.8508 141.915C29.6561 140.802 29.5003 139.675 29.3202 138.558C29.1304 137.357 28.9357 136.161 28.6875 134.971C28.6627 134.774 28.5815 134.59 28.4539 134.439C27.6751 133.712 27.1592 136.069 27.1105 136.391C26.9012 137.855 26.6822 139.348 26.4437 140.822C26.1225 142.818 25.4167 144.55 23.2362 144.97C21.8928 145.228 20.5495 145.458 19.2207 145.79C19.0735 145.837 18.9391 145.917 18.8278 146.025C18.7164 146.132 18.631 146.264 18.5782 146.409C18.476 146.819 18.8313 146.956 19.211 147.029C20.6712 147.307 22.1313 147.634 23.5915 147.888C24.2676 148.009 24.8748 148.378 25.295 148.923C26.1371 149.933 26.322 151.153 26.5021 152.387C26.7601 154.188 27.0375 155.984 27.3149 157.785C27.3782 158.204 27.4853 158.6 28.157 158.605C28.6437 158.605 28.7118 158.116 28.78 157.677C29.1304 155.433 29.4614 153.193 29.8264 150.953C29.9291 150.188 30.2724 149.476 30.8064 148.921C31.3403 148.365 32.0371 147.995 32.7954 147.864C34.155 147.577 35.5146 147.307 36.8742 147.054C37.2733 146.975 37.6578 146.849 37.541 146.4Z" fill="#FFF000" stroke="#181180" stroke-width="1.5" stroke-miterlimit="10"/>
<path d="M180.891 19.3735L181.679 18.8855C182.541 18.374 183.331 17.7505 184.03 17.0311C184.763 16.2904 185.376 15.4391 185.846 14.5082C186.06 14.0641 186.235 13.5956 186.43 13.1369C186.446 13.0985 186.467 13.0625 186.493 13.0295C186.823 13.9356 187.25 14.8029 187.768 15.6159C188.322 16.3995 188.966 17.1152 189.686 17.7485C190.43 18.362 191.23 18.9044 192.076 19.3686C192.022 19.4028 191.988 19.4321 191.949 19.4516C191.325 19.8047 190.724 20.1959 190.148 20.6228C188.888 21.5803 187.858 22.8094 187.135 24.2194C186.911 24.6586 186.741 25.127 186.546 25.5857L186.483 25.7273C186.157 24.818 185.729 23.9487 185.208 23.136C184.655 22.3445 184.009 21.622 183.285 20.9839C182.539 20.3728 181.738 19.8336 180.891 19.3735V19.3735Z" fill="#FFF000" stroke="#181180" stroke-width="1.5" stroke-miterlimit="10"/>
<path d="M194.918 95.8283C196.276 96.7472 197.218 98.1657 197.539 99.7762C197.861 101.387 197.537 103.059 196.636 104.432L189.876 114.738C189.434 115.415 188.863 115.997 188.194 116.45C187.525 116.902 186.773 117.216 185.982 117.373C185.193 117.528 184.381 117.522 183.595 117.354C182.809 117.186 182.064 116.861 181.407 116.397L171.224 109.482C169.87 108.556 168.933 107.133 168.616 105.52C168.294 103.913 168.621 102.244 169.526 100.879L176.291 90.5823C176.726 89.9153 177.288 89.3408 177.944 88.8916C178.6 88.4423 179.339 88.1271 180.116 87.964C180.894 87.8008 181.697 87.7929 182.478 87.9407C183.258 88.0886 184.003 88.3892 184.668 88.8255L184.78 88.8987L194.918 95.8283ZM189.846 103.553C190.291 102.865 190.451 102.03 190.292 101.226C190.133 100.421 189.668 99.7103 188.995 99.2443L183.913 95.7795C183.245 95.3255 182.423 95.1564 181.63 95.3092C180.837 95.462 180.137 95.9243 179.684 96.5944V96.6188L176.277 101.762C175.83 102.45 175.668 103.285 175.827 104.089C175.985 104.894 176.45 105.605 177.124 106.071L182.205 109.541C182.536 109.765 182.908 109.922 183.299 110.002C183.691 110.083 184.094 110.085 184.487 110.009C184.879 109.933 185.253 109.78 185.586 109.559C185.919 109.338 186.206 109.053 186.43 108.721L189.846 103.553Z" fill="#0032EB"/>
<path d="M161.344 140.383L156.856 141.271L156.078 143.252L154.88 143.491L157.708 136.659L158.818 136.44L164.026 141.681L162.828 141.92L161.344 140.383ZM160.57 139.568L158.409 137.323L157.265 140.227L160.57 139.568Z" fill="black"/>
<path d="M170.631 135.083L170.996 136.933L170.256 138.04L165.267 139.016L165.724 141.329L164.712 141.53L163.539 135.527L169.54 134.336L170.631 135.083ZM169.613 135.283L164.722 136.259L165.087 138.109L169.978 137.133L169.613 135.283Z" fill="black"/>
<path d="M178.384 133.546L178.749 135.395L178.009 136.503L173.025 137.479L173.478 139.792L172.466 139.992L171.278 133.975L177.279 132.784L178.384 133.546ZM177.367 133.746L172.475 134.722L172.84 136.571L177.732 135.595L177.367 133.746Z" fill="black"/>
<path d="M187.632 137.001L186.478 137.23L184.819 135.176L180.779 135.981L181.231 138.294L180.219 138.494L179.031 132.477L185.198 131.257L186.303 131.999L186.668 133.848L185.928 134.932L187.632 137.001ZM185.656 134.029L185.291 132.175L180.229 133.18L180.594 135.029L185.656 134.029Z" fill="black"/>
<path d="M188.05 135.956L187.228 131.794L187.968 130.681L193.716 129.539L194.826 130.281L195.643 134.449L194.903 135.556L189.136 136.698L188.05 135.956ZM194.65 134.649L193.828 130.486L188.245 131.589L189.063 135.756L194.65 134.649Z" fill="black"/>
<path d="M203.752 127.553L201.202 134.312L200.092 134.532L195.176 129.256L196.378 129.017L200.496 133.614L202.564 127.792L203.752 127.553Z" fill="black"/>
<path d="M211.54 131.301L211.725 132.248L205.631 133.458L204.448 127.441L210.401 126.26L210.581 127.187L205.645 128.163L205.947 129.691L210.605 128.763L210.79 129.691L206.127 130.613L206.463 132.326L211.54 131.301Z" fill="black"/>
<path d="M211.369 126.045L218.052 124.718L219.157 125.46L219.979 129.627L219.24 130.735L212.547 132.062L211.369 126.045ZM218.972 129.808L218.154 125.645L212.567 126.748L213.389 130.915L218.972 129.808Z" fill="black"/>
<path d="M219.999 124.332L221.016 124.132L221.727 128.222L220.894 128.388L219.999 124.332ZM220.972 129.32L221.985 129.115L222.189 130.135L221.172 130.335L220.972 129.32Z" fill="black"/>
<path d="M202.039 166.486L206.239 163.558C206.423 163.429 206.631 163.339 206.85 163.293C207.069 163.248 207.296 163.248 207.515 163.294C207.734 163.34 207.942 163.43 208.125 163.559C208.309 163.689 208.463 163.854 208.58 164.046L211.228 168.438C211.401 168.725 211.657 168.952 211.963 169.089C212.268 169.226 212.608 169.266 212.937 169.204L217.964 168.228C218.185 168.185 218.413 168.187 218.633 168.236C218.853 168.284 219.06 168.378 219.243 168.51C219.425 168.642 219.579 168.81 219.694 169.005C219.809 169.199 219.883 169.414 219.911 169.638L220.544 174.733C220.587 175.066 220.73 175.378 220.954 175.628C221.179 175.877 221.474 176.052 221.8 176.129L226.784 177.295C227.002 177.345 227.208 177.44 227.388 177.574C227.568 177.708 227.719 177.877 227.832 178.071C227.944 178.266 228.015 178.481 228.041 178.705C228.067 178.928 228.046 179.154 227.981 179.369L226.497 184.283C226.399 184.604 226.401 184.947 226.504 185.267C226.606 185.586 226.804 185.866 227.071 186.069L231.155 189.168C231.333 189.303 231.483 189.474 231.593 189.669C231.704 189.864 231.773 190.08 231.796 190.304C231.82 190.527 231.798 190.753 231.731 190.967C231.664 191.181 231.554 191.379 231.408 191.549L228.054 195.453C227.835 195.708 227.699 196.023 227.664 196.357C227.63 196.691 227.698 197.028 227.859 197.322L230.332 201.817C230.44 202.014 230.506 202.231 230.527 202.454C230.548 202.678 230.523 202.903 230.454 203.117C230.384 203.33 230.272 203.527 230.124 203.696C229.976 203.864 229.795 204 229.592 204.096L224.959 206.277C224.655 206.419 224.402 206.651 224.234 206.942C224.066 207.232 223.991 207.568 224.019 207.902L224.452 213.021C224.472 213.245 224.445 213.47 224.374 213.682C224.303 213.895 224.189 214.091 224.039 214.257C223.89 214.424 223.707 214.558 223.504 214.651C223.3 214.744 223.08 214.794 222.856 214.798L217.736 214.9C217.401 214.907 217.077 215.016 216.806 215.213C216.535 215.41 216.331 215.686 216.222 216.003L214.543 220.854C214.47 221.066 214.354 221.262 214.202 221.428C214.051 221.594 213.867 221.727 213.662 221.818C213.457 221.91 213.235 221.958 213.011 221.96C212.786 221.962 212.564 221.918 212.357 221.83L207.641 219.834C207.333 219.705 206.992 219.673 206.665 219.743C206.338 219.813 206.04 219.98 205.811 220.224L202.307 223.972C202.154 224.136 201.969 224.267 201.763 224.357C201.557 224.446 201.336 224.492 201.112 224.492C200.888 224.492 200.666 224.446 200.46 224.357C200.255 224.267 200.07 224.136 199.917 223.972L196.417 220.224C196.187 219.981 195.889 219.813 195.563 219.744C195.236 219.674 194.896 219.705 194.587 219.834L189.866 221.83C189.66 221.918 189.438 221.962 189.214 221.96C188.989 221.958 188.768 221.909 188.564 221.818C188.359 221.726 188.175 221.593 188.024 221.428C187.873 221.262 187.758 221.066 187.685 220.854L186.006 216.003C185.895 215.686 185.69 215.411 185.419 215.213C185.148 215.016 184.823 214.907 184.488 214.9L179.367 214.798C179.144 214.793 178.924 214.743 178.72 214.65C178.517 214.556 178.335 214.422 178.186 214.256C178.036 214.089 177.922 213.894 177.851 213.682C177.779 213.469 177.752 213.245 177.771 213.021L178.204 207.902C178.232 207.568 178.157 207.233 177.99 206.943C177.823 206.653 177.572 206.42 177.269 206.277L172.631 204.096C172.428 204 172.247 203.864 172.099 203.696C171.951 203.527 171.839 203.33 171.77 203.116C171.701 202.903 171.677 202.677 171.699 202.453C171.72 202.23 171.787 202.013 171.896 201.817L174.364 197.322C174.526 197.028 174.594 196.691 174.559 196.357C174.524 196.023 174.388 195.708 174.169 195.453L170.82 191.549C170.674 191.38 170.563 191.182 170.496 190.968C170.429 190.754 170.406 190.528 170.429 190.305C170.453 190.081 170.521 189.865 170.631 189.67C170.741 189.474 170.89 189.303 171.069 189.168L175.152 186.069C175.419 185.866 175.618 185.586 175.721 185.267C175.825 184.948 175.828 184.604 175.731 184.283L174.271 179.369C174.206 179.154 174.186 178.928 174.211 178.705C174.236 178.482 174.307 178.267 174.419 178.073C174.531 177.878 174.681 177.709 174.861 177.575C175.041 177.441 175.246 177.346 175.464 177.295L180.453 176.129C180.779 176.052 181.073 175.877 181.297 175.628C181.521 175.378 181.663 175.066 181.704 174.733L182.341 169.638C182.369 169.414 182.443 169.198 182.557 169.003C182.672 168.809 182.826 168.64 183.008 168.508C183.191 168.376 183.399 168.283 183.619 168.234C183.839 168.186 184.067 168.184 184.288 168.228L189.316 169.204C189.645 169.266 189.986 169.227 190.292 169.09C190.598 168.953 190.855 168.725 191.029 168.438L193.677 164.046C193.793 163.854 193.948 163.689 194.131 163.56C194.313 163.43 194.521 163.34 194.74 163.294C194.959 163.249 195.185 163.248 195.404 163.294C195.623 163.339 195.83 163.429 196.013 163.558L200.214 166.486C200.484 166.666 200.802 166.762 201.126 166.762C201.451 166.762 201.768 166.666 202.039 166.486Z" fill="#FFF000" stroke="#181180" stroke-width="1.5" stroke-miterlimit="10"/>
<path d="M189.194 199.543L197.848 203.764L209.831 179.598" stroke="#181180" stroke-width="1.5" stroke-miterlimit="10"/>
<path d="M88.973 144.648C101.193 144.648 111.099 134.715 111.099 122.463C111.099 110.211 101.193 100.279 88.973 100.279C76.7529 100.279 66.8466 110.211 66.8466 122.463C66.8466 134.715 76.7529 144.648 88.973 144.648Z" fill="#0028F4" stroke="#0028F4" stroke-width="1.5" stroke-linecap="round" stroke-linejoin="round"/>
<path d="M88.7929 142.959C101.051 142.959 110.988 132.996 110.988 120.707C110.988 108.417 101.051 98.4539 88.7929 98.4539C76.5352 98.4539 66.5984 108.417 66.5984 120.707C66.5984 132.996 76.5352 142.959 88.7929 142.959Z" fill="#FFF000" stroke="#0C23F4" stroke-width="1.5" stroke-linecap="round" stroke-linejoin="round"/>
<path d="M95.1495 110.834C96.1668 111.888 97.2668 113.055 98.396 114.192C98.9947 114.797 98.4398 115.09 98.1039 115.426C93.3795 120.189 88.6339 124.947 83.8673 129.7C83.512 130.057 83.1421 130.398 82.8695 130.676L79.0828 126.963C84.3783 121.639 89.7031 116.295 95.1495 110.834Z" stroke="#0C23F4" stroke-width="1.5" stroke-linecap="round" stroke-linejoin="round"/>
<path d="M84.9332 132.858L100.796 116.915L104.353 120.506L88.4717 136.415L84.9332 132.858Z" stroke="#0C23F4" stroke-width="1.5" stroke-linecap="round" stroke-linejoin="round"/>
<path d="M82.8793 118.584L79.2726 115.016L89.2456 105.008L92.8619 108.575L82.8793 118.584Z" stroke="#0C23F4" stroke-width="1.5" stroke-linecap="round" stroke-linejoin="round"/>
<path d="M76.8341 124.615L73.2275 121.024L76.7952 117.315L80.431 121.024L76.8341 124.615Z" stroke="#0C23F4" stroke-width="1.5" stroke-linecap="round" stroke-linejoin="round"/>
<path d="M80.2143 197.68C83.1665 187.213 82.6785 177.911 79.1245 176.903C75.5704 175.895 70.296 183.564 67.3438 194.031C64.3916 204.498 64.8795 213.8 68.4336 214.808C71.9877 215.815 77.2621 208.147 80.2143 197.68Z" fill="#0C23F4" stroke="#0C23F4" stroke-width="1.5" stroke-linecap="round" stroke-linejoin="round"/>
<path d="M81.3623 197.922C84.2916 187.48 83.7919 178.204 80.2462 177.204C76.7005 176.204 71.4515 183.859 68.5222 194.302C65.5929 204.744 66.0926 214.02 69.6383 215.02C73.1841 216.02 78.4331 208.365 81.3623 197.922Z" fill="#FFF000" stroke="#0C23F4" stroke-width="1.49587" stroke-linecap="round" stroke-linejoin="round"/>
<path d="M286.339 176.514L295.952 176.738" stroke="#0C23F4" stroke-width="1.5" stroke-linecap="round" stroke-linejoin="round"/>
<path d="M289.508 162.606L289.425 166.061" stroke="#0C23F4" stroke-width="1.5" stroke-linecap="round" stroke-linejoin="round"/>
<path d="M293.48 162.704L293.397 166.159" stroke="#0C23F4" stroke-width="1.5" stroke-linecap="round" stroke-linejoin="round"/>
<path d="M288.89 188.68L288.807 192.135" stroke="#0C23F4" stroke-width="1.5" stroke-linecap="round" stroke-linejoin="round"/>
<path d="M292.857 188.772L292.774 192.223" stroke="#0C23F4" stroke-width="1.5" stroke-linecap="round" stroke-linejoin="round"/>
<path d="M298.157 168.023L296.215 166.222L286.592 165.998L286.052 188.524L295.709 188.753L297.699 187.074L297.889 178.925L295.704 176.812L297.982 175.274L298.157 168.023Z" stroke="#0C23F4" stroke-width="1.5" stroke-linecap="round" stroke-linejoin="round"/>
</svg>
